<?xml version="1.0" encoding="utf-8"?>
<!-- Generator: Adobe Illustrator 21.0.0, SVG Export Plug-In . SVG Version: 6.00 Build 0)  -->
<svg version="1.1" id="Capa_1" xmlns="http://www.w3.org/2000/svg" xmlns:xlink="http://www.w3.org/1999/xlink" x="0px" y="0px"
	 viewBox="0 0 58 58" style="enable-background:new 0 0 58 58;" xml:space="preserve">
<style type="text/css">
	.st0{fill:#6BBEA1;}
	.st1{fill:#498679;}
	.st2{fill:#F0C41B;}
	.st3{fill:#F3D55C;}
	.st4{fill:none;}
	.st5{fill:#FFFFFF;}
	.st6{fill:#F05228;}
</style>
<g id="XMLID_7_">
	<path id="XMLID_130_" class="st0" d="M49.8,45.9H8.2c-1.4,0-2.6-1.2-2.6-2.6V14.7c0-1.4,1.2-2.6,2.6-2.6h41.6
		c1.4,0,2.6,1.2,2.6,2.6v28.7C52.4,44.8,51.2,45.9,49.8,45.9"/>
	<rect id="XMLID_129_" x="9.6" y="35.5" class="st1" width="7.3" height="4.8"/>
	<rect id="XMLID_128_" x="20.1" y="35.5" class="st1" width="7.3" height="4.8"/>
	<rect id="XMLID_127_" x="30.6" y="35.5" class="st1" width="7.3" height="4.8"/>
	<rect id="XMLID_126_" x="41.1" y="35.5" class="st1" width="7.3" height="4.8"/>
	<path id="XMLID_125_" class="st2" d="M21.5,26.6H10.7c-0.6,0-1-0.5-1-1v-7.7c0-0.6,0.5-1,1-1h10.9c0.6,0,1,0.5,1,1v7.7
		C22.5,26.1,22.1,26.6,21.5,26.6"/>
	<path id="XMLID_122_" class="st3" d="M21.5,27.4H10.7c-1,0-1.8-0.8-1.8-1.8v-7.7c0-1,0.8-1.8,1.8-1.8h10.9c1,0,1.8,0.8,1.8,1.8v7.7
		C23.4,26.6,22.5,27.4,21.5,27.4 M10.7,17.7c-0.1,0-0.2,0.1-0.2,0.2v7.7c0,0.1,0.1,0.2,0.2,0.2h10.9c0.1,0,0.2-0.1,0.2-0.2v-7.7
		c0-0.1-0.1-0.2-0.2-0.2H10.7z"/>
	<path id="XMLID_121_" class="st2" d="M22.5,17.9c0-0.6-0.5-1-1-1h-3.8h-2.2c-0.6,0-1,0.5-1,1v2.2v5.4c0,0.6,0.5,1,1,1h1.2
		c0.6,0,1-0.5,1-1v-4.4c0-0.6,0.5-1,1-1h2.8c0.6,0,1-0.5,1-1V17.9z"/>
	<path id="XMLID_118_" class="st3" d="M16.7,27.4h-1.2c-1,0-1.8-0.8-1.8-1.8v-7.7c0-1,0.8-1.8,1.8-1.8h6c1,0,1.8,0.8,1.8,1.8v1.2
		c0,1-0.8,1.8-1.8,1.8h-2.8c-0.1,0-0.2,0.1-0.2,0.2v4.4C18.5,26.6,17.7,27.4,16.7,27.4 M15.5,17.7c-0.1,0-0.2,0.1-0.2,0.2v7.7
		c0,0.1,0.1,0.2,0.2,0.2h1.2c0.1,0,0.2-0.1,0.2-0.2v-4.4c0-1,0.8-1.8,1.8-1.8h2.8c0.1,0,0.2-0.1,0.2-0.2v-1.2c0-0.1-0.1-0.2-0.2-0.2
		H15.5z"/>
	<line id="XMLID_117_" class="st4" x1="17.7" y1="23.4" x2="22.5" y2="23.4"/>
	<path id="XMLID_116_" class="st3" d="M22.5,24.2h-4.8c-0.4,0-0.8-0.4-0.8-0.8c0-0.4,0.4-0.8,0.8-0.8h4.8c0.4,0,0.8,0.4,0.8,0.8
		C23.4,23.8,23,24.2,22.5,24.2"/>
	<line id="XMLID_115_" class="st4" x1="14.5" y1="20.1" x2="9.6" y2="20.1"/>
	<path id="XMLID_114_" class="st3" d="M14.5,20.9H9.6c-0.4,0-0.8-0.4-0.8-0.8c0-0.4,0.4-0.8,0.8-0.8h4.8c0.4,0,0.8,0.4,0.8,0.8
		C15.3,20.6,14.9,20.9,14.5,20.9"/>
	<line id="XMLID_113_" class="st4" x1="14.5" y1="23.4" x2="9.6" y2="23.4"/>
	<path id="XMLID_112_" class="st3" d="M14.5,24.2H9.6c-0.4,0-0.8-0.4-0.8-0.8c0-0.4,0.4-0.8,0.8-0.8h4.8c0.4,0,0.8,0.4,0.8,0.8
		C15.3,23.8,14.9,24.2,14.5,24.2"/>
	<path id="XMLID_111_" class="st1" d="M37.9,16.1h-7.3c-0.4,0-0.8,0.4-0.8,0.8c0,0.4,0.4,0.8,0.8,0.8h7.3c0.4,0,0.8-0.4,0.8-0.8
		C38.7,16.5,38.3,16.1,37.9,16.1"/>
	<path id="XMLID_110_" class="st1" d="M49.2,16.9c0-0.4-0.4-0.8-0.8-0.8h-7.3c-0.4,0-0.8,0.4-0.8,0.8c0,0.4,0.4,0.8,0.8,0.8h7.3
		C48.8,17.7,49.2,17.3,49.2,16.9"/>
	<path id="XMLID_109_" class="st1" d="M31.4,20.1h-0.8c-0.4,0-0.8,0.4-0.8,0.8c0,0.4,0.4,0.8,0.8,0.8h0.8c0.4,0,0.8-0.4,0.8-0.8
		C32.2,20.5,31.9,20.1,31.4,20.1"/>
	<path id="XMLID_108_" class="st1" d="M36.3,20.1h-1.6c-0.4,0-0.8,0.4-0.8,0.8c0,0.4,0.4,0.8,0.8,0.8h1.6c0.4,0,0.8-0.4,0.8-0.8
		C37.1,20.5,36.7,20.1,36.3,20.1"/>
	<path id="XMLID_107_" class="st1" d="M40.3,20.1h-0.8c-0.4,0-0.8,0.4-0.8,0.8c0,0.4,0.4,0.8,0.8,0.8h0.8c0.4,0,0.8-0.4,0.8-0.8
		C41.1,20.5,40.7,20.1,40.3,20.1"/>
	<path id="XMLID_106_" class="st1" d="M45.1,20.1h-1.6c-0.4,0-0.8,0.4-0.8,0.8c0,0.4,0.4,0.8,0.8,0.8h1.6c0.4,0,0.8-0.4,0.8-0.8
		C45.9,20.5,45.6,20.1,45.1,20.1"/>
	<path id="XMLID_105_" class="st1" d="M47.8,20.4c-0.1,0.2-0.2,0.4-0.2,0.6c0,0.2,0.1,0.4,0.2,0.6c0.2,0.1,0.4,0.2,0.6,0.2
		c0.2,0,0.4-0.1,0.6-0.2c0.1-0.2,0.2-0.4,0.2-0.6c0-0.2-0.1-0.4-0.2-0.6C48.6,20.1,48.1,20.1,47.8,20.4"/>
</g>
<circle class="st5" cx="50.8" cy="45.2" r="4.3"/>
<path class="st6" d="M50.5,38.9c-3.3,0-5.9,2.6-5.9,5.9c0,3.3,2.6,5.9,5.9,5.9c3.3,0,5.9-2.6,5.9-5.9C56.4,41.6,53.8,38.9,50.5,38.9
	z M53.8,46.5L52.3,48l-1.7-1.7L48.8,48l-1.5-1.5l1.7-1.7l-1.7-1.7l1.5-1.5l1.7,1.7l1.7-1.7l1.5,1.5L52,44.8L53.8,46.5z"/>
</svg>
