<?xml version="1.0" encoding="utf-8"?>
<!-- Generator: Adobe Illustrator 21.0.0, SVG Export Plug-In . SVG Version: 6.00 Build 0)  -->
<svg version="1.1" id="Capa_1" xmlns="http://www.w3.org/2000/svg" xmlns:xlink="http://www.w3.org/1999/xlink" x="0px" y="0px"
	 viewBox="0 0 150 200" style="enable-background:new 0 0 150 200;" xml:space="preserve">
<style type="text/css">
	.st0{fill:#D7D7D7;}
	.st1{fill:#6A962E;}
	.st2{fill:#8BBF41;}
	.st3{fill:#B7D162;}
	.st4{fill:#367D32;}
	.st5{fill:#FFFFFF;}
</style>
<g>
	<g>
		<ellipse class="st0" cx="74.8" cy="161.1" rx="55.3" ry="32.3"/>
	</g>
	<rect x="19.5" y="150.2" class="st0" width="110.6" height="10.6"/>
	<g>
		<ellipse class="st0" cx="74.8" cy="150.5" rx="55.3" ry="32.3"/>
		<ellipse class="st0" cx="99.9" cy="130.8" rx="7.1" ry="4.1"/>
		<g>
			<path class="st0" d="M38.3,135.2V132c0-0.7,1-1.3,2.3-1.3h35.2c1.3,0,2.3,0.6,2.3,1.3v3.2c0,0.7-1,1.3-2.3,1.3H63.5v23
				c0,0.7-1,1.3-2.3,1.3h-6.1c-1.3,0-2.3-0.6-2.3-1.3v-23H40.6C39.3,136.6,38.3,135.9,38.3,135.2z"/>
			<path class="st0" d="M112.7,170.4c0,0.6-0.7,1-1.6,1h-7.8c-1.5,0-2.4-0.5-2.9-1l-12.1-11.7l-5.8,3.9v7.6c0,0.7-1,1.3-2.3,1.3
				h-6.1c-1.3,0-2.3-0.6-2.3-1.3v-27.5c0-0.7,1-1.3,2.3-1.3h6.1c1.3,0,2.3,0.6,2.3,1.3v11.9l17.4-12.2c1.3-0.9,2.3-1,3.3-1h7.5
				c1,0,1.6,0.4,1.6,1c0,0.6-1,1.2-1.9,1.8l-14.7,9.8l15.9,15.2C112.2,169.5,112.7,170,112.7,170.4z"/>
			<path class="st0" d="M37,134.2V131c0-0.7,1-1.3,2.3-1.3h35.2c1.3,0,2.3,0.6,2.3,1.3v3.2c0,0.7-1,1.3-2.3,1.3H62.2v23
				c0,0.7-1,1.3-2.3,1.3h-6.1c-1.3,0-2.3-0.6-2.3-1.3v-23H39.3C38,135.6,37,135,37,134.2z"/>
			<path class="st0" d="M111.4,169.4c0,0.6-0.7,1-1.6,1h-7.8c-1.5,0-2.4-0.5-2.9-1l-12.1-11.7l-5.8,3.9v7.6c0,0.7-1,1.3-2.3,1.3
				h-6.1c-1.3,0-2.3-0.6-2.3-1.3v-27.5c0-0.7,1-1.3,2.3-1.3h6.1c1.3,0,2.3,0.6,2.3,1.3v11.9l17.4-12.2c1.3-0.9,2.3-1,3.3-1h7.5
				c1,0,1.6,0.4,1.6,1c0,0.6-1,1.2-1.9,1.8l-14.7,9.8l15.9,15.2C110.9,168.6,111.4,169,111.4,169.4z"/>
		</g>
	</g>
</g>
<g>
	<g>
		<ellipse class="st1" cx="75" cy="157" rx="55.3" ry="32.3"/>
	</g>
	<rect x="19.7" y="146.1" class="st1" width="110.6" height="10.6"/>
	<g>
		<ellipse class="st2" cx="75" cy="146.4" rx="55.3" ry="32.3"/>
		<ellipse class="st3" cx="100.1" cy="126.7" rx="7.1" ry="4.1"/>
		<g>
			<path class="st4" d="M38.4,131.1v-3.2c0-0.7,1-1.3,2.3-1.3H76c1.3,0,2.3,0.6,2.3,1.3v3.2c0,0.7-1,1.3-2.3,1.3H63.7v23
				c0,0.7-1,1.3-2.3,1.3h-6.1c-1.3,0-2.3-0.6-2.3-1.3v-23H40.7C39.5,132.4,38.4,131.8,38.4,131.1z"/>
			<path class="st4" d="M112.9,166.3c0,0.6-0.7,1-1.6,1h-7.8c-1.5,0-2.4-0.5-2.9-1l-12.1-11.7l-5.8,3.9v7.6c0,0.7-1,1.3-2.3,1.3
				h-6.1c-1.3,0-2.3-0.6-2.3-1.3v-27.5c0-0.7,1-1.3,2.3-1.3h6.1c1.3,0,2.3,0.6,2.3,1.3v11.9l17.4-12.2c1.3-0.9,2.3-1,3.3-1h7.5
				c1,0,1.6,0.4,1.6,1c0,0.6-1,1.2-1.9,1.8l-14.7,9.8l15.9,15.2C112.4,165.4,112.9,165.9,112.9,166.3z"/>
			<path class="st5" d="M37.1,130.1v-3.2c0-0.7,1-1.3,2.3-1.3h35.2c1.3,0,2.3,0.6,2.3,1.3v3.2c0,0.7-1,1.3-2.3,1.3H62.4v23
				c0,0.7-1,1.3-2.3,1.3H54c-1.3,0-2.3-0.6-2.3-1.3v-23H39.4C38.2,131.5,37.1,130.9,37.1,130.1z"/>
			<path class="st5" d="M111.6,165.3c0,0.6-0.7,1-1.6,1h-7.8c-1.5,0-2.4-0.5-2.9-1l-12.1-11.7l-5.8,3.9v7.6c0,0.7-1,1.3-2.3,1.3
				h-6.1c-1.3,0-2.3-0.6-2.3-1.3v-27.5c0-0.7,1-1.3,2.3-1.3h6.1c1.3,0,2.3,0.6,2.3,1.3v11.9l17.4-12.2c1.3-0.9,2.3-1,3.3-1h7.5
				c1,0,1.6,0.4,1.6,1c0,0.6-1,1.2-1.9,1.8l-14.7,9.8l15.9,15.2C111,164.5,111.6,164.9,111.6,165.3z"/>
		</g>
	</g>
</g>
<g>
	<g>
		<ellipse class="st1" cx="75" cy="139.7" rx="55.3" ry="32.3"/>
	</g>
	<rect x="19.7" y="128.8" class="st1" width="110.6" height="10.6"/>
	<g>
		<ellipse class="st2" cx="75" cy="129.1" rx="55.3" ry="32.3"/>
		<ellipse class="st3" cx="100.1" cy="109.4" rx="7.1" ry="4.1"/>
		<g>
			<path class="st4" d="M38.4,113.8v-3.2c0-0.7,1-1.3,2.3-1.3H76c1.3,0,2.3,0.6,2.3,1.3v3.2c0,0.7-1,1.3-2.3,1.3H63.7v23
				c0,0.7-1,1.3-2.3,1.3h-6.1c-1.3,0-2.3-0.6-2.3-1.3v-23H40.7C39.5,115.2,38.4,114.6,38.4,113.8z"/>
			<path class="st4" d="M112.9,149c0,0.6-0.7,1-1.6,1h-7.8c-1.5,0-2.4-0.5-2.9-1l-12.1-11.7l-5.8,3.9v7.6c0,0.7-1,1.3-2.3,1.3h-6.1
				c-1.3,0-2.3-0.6-2.3-1.3v-27.5c0-0.7,1-1.3,2.3-1.3h6.1c1.3,0,2.3,0.6,2.3,1.3V133l17.4-12.2c1.3-0.9,2.3-1,3.3-1h7.5
				c1,0,1.6,0.4,1.6,1c0,0.6-1,1.2-1.9,1.8l-14.7,9.8l15.9,15.2C112.4,148.1,112.9,148.6,112.9,149z"/>
			<path class="st5" d="M37.1,112.8v-3.2c0-0.7,1-1.3,2.3-1.3h35.2c1.3,0,2.3,0.6,2.3,1.3v3.2c0,0.7-1,1.3-2.3,1.3H62.4v23
				c0,0.7-1,1.3-2.3,1.3H54c-1.3,0-2.3-0.6-2.3-1.3v-23H39.4C38.2,114.2,37.1,113.6,37.1,112.8z"/>
			<path class="st5" d="M111.6,148c0,0.6-0.7,1-1.6,1h-7.8c-1.5,0-2.4-0.5-2.9-1l-12.1-11.7l-5.8,3.9v7.6c0,0.7-1,1.3-2.3,1.3h-6.1
				c-1.3,0-2.3-0.6-2.3-1.3v-27.5c0-0.7,1-1.3,2.3-1.3h6.1c1.3,0,2.3,0.6,2.3,1.3V132l17.4-12.2c1.3-0.9,2.3-1,3.3-1h7.5
				c1,0,1.6,0.4,1.6,1c0,0.6-1,1.2-1.9,1.8l-14.7,9.8l15.9,15.2C111,147.2,111.6,147.6,111.6,148z"/>
		</g>
	</g>
</g>
<g>
	<g>
		<ellipse class="st1" cx="75" cy="120.8" rx="55.3" ry="32.3"/>
	</g>
	<rect x="19.7" y="109.9" class="st1" width="110.6" height="10.6"/>
	<g>
		<ellipse class="st2" cx="75" cy="110.2" rx="55.3" ry="32.3"/>
		<ellipse class="st3" cx="100.1" cy="90.4" rx="7.1" ry="4.1"/>
		<g>
			<path class="st4" d="M38.4,94.9v-3.2c0-0.7,1-1.3,2.3-1.3H76c1.3,0,2.3,0.6,2.3,1.3v3.2c0,0.7-1,1.3-2.3,1.3H63.7v23
				c0,0.7-1,1.3-2.3,1.3h-6.1c-1.3,0-2.3-0.6-2.3-1.3v-23H40.7C39.5,96.2,38.4,95.6,38.4,94.9z"/>
			<path class="st4" d="M112.9,130.1c0,0.6-0.7,1-1.6,1h-7.8c-1.5,0-2.4-0.5-2.9-1l-12.1-11.7l-5.8,3.9v7.6c0,0.7-1,1.3-2.3,1.3
				h-6.1c-1.3,0-2.3-0.6-2.3-1.3v-27.5c0-0.7,1-1.3,2.3-1.3h6.1c1.3,0,2.3,0.6,2.3,1.3v11.9l17.4-12.2c1.3-0.9,2.3-1,3.3-1h7.5
				c1,0,1.6,0.4,1.6,1c0,0.6-1,1.2-1.9,1.8l-14.7,9.8l15.9,15.2C112.3,129.2,112.9,129.7,112.9,130.1z"/>
			<path class="st5" d="M37.1,93.9v-3.2c0-0.7,1-1.3,2.3-1.3h35.2c1.3,0,2.3,0.6,2.3,1.3v3.2c0,0.7-1,1.3-2.3,1.3H62.4v23
				c0,0.7-1,1.3-2.3,1.3H54c-1.3,0-2.3-0.6-2.3-1.3v-23H39.4C38.2,95.3,37.1,94.7,37.1,93.9z"/>
			<path class="st5" d="M111.6,129.1c0,0.6-0.7,1-1.6,1h-7.8c-1.5,0-2.4-0.5-2.9-1l-12.1-11.7l-5.8,3.9v7.6c0,0.7-1,1.3-2.3,1.3
				h-6.1c-1.3,0-2.3-0.6-2.3-1.3v-27.5c0-0.7,1-1.3,2.3-1.3h6.1c1.3,0,2.3,0.6,2.3,1.3v11.9l17.4-12.2c1.3-0.9,2.3-1,3.3-1h7.5
				c1,0,1.6,0.4,1.6,1c0,0.6-1,1.2-1.9,1.8l-14.7,9.8l15.9,15.2C111,128.2,111.6,128.7,111.6,129.1z"/>
		</g>
	</g>
</g>
<g>
	<g>
		<ellipse class="st1" cx="75" cy="103.7" rx="55.3" ry="32.3"/>
	</g>
	<rect x="19.7" y="92.8" class="st1" width="110.6" height="10.6"/>
	<g>
		<ellipse class="st2" cx="75" cy="93.2" rx="55.3" ry="32.3"/>
		<ellipse class="st3" cx="100.1" cy="73.4" rx="7.1" ry="4.1"/>
		<g>
			<path class="st4" d="M38.4,77.8v-3.2c0-0.7,1-1.3,2.3-1.3H76c1.3,0,2.3,0.6,2.3,1.3v3.2c0,0.7-1,1.3-2.3,1.3H63.7v23
				c0,0.7-1,1.3-2.3,1.3h-6.1c-1.3,0-2.3-0.6-2.3-1.3v-23H40.7C39.5,79.2,38.4,78.6,38.4,77.8z"/>
			<path class="st4" d="M112.9,113c0,0.6-0.7,1-1.6,1h-7.8c-1.5,0-2.4-0.5-2.9-1l-12.1-11.7l-5.8,3.9v7.6c0,0.7-1,1.3-2.3,1.3h-6.1
				c-1.3,0-2.3-0.6-2.3-1.3V85.1c0-0.7,1-1.3,2.3-1.3h6.1c1.3,0,2.3,0.6,2.3,1.3V97l17.4-12.2c1.3-0.9,2.3-1,3.3-1h7.5
				c1,0,1.6,0.4,1.6,1c0,0.6-1,1.2-1.9,1.8l-14.7,9.8l15.9,15.2C112.4,112.2,112.9,112.6,112.9,113z"/>
			<path class="st5" d="M37.1,76.9v-3.2c0-0.7,1-1.3,2.3-1.3h35.2c1.3,0,2.3,0.6,2.3,1.3v3.2c0,0.7-1,1.3-2.3,1.3H62.4v23
				c0,0.7-1,1.3-2.3,1.3H54c-1.3,0-2.3-0.6-2.3-1.3v-23H39.4C38.2,78.2,37.1,77.6,37.1,76.9z"/>
			<path class="st5" d="M111.6,112c0,0.6-0.7,1-1.6,1h-7.8c-1.5,0-2.4-0.5-2.9-1l-12.1-11.7l-5.8,3.9v7.6c0,0.7-1,1.3-2.3,1.3h-6.1
				c-1.3,0-2.3-0.6-2.3-1.3V84.1c0-0.7,1-1.3,2.3-1.3h6.1c1.3,0,2.3,0.6,2.3,1.3V96l17.4-12.2c1.3-0.9,2.3-1,3.3-1h7.5
				c1,0,1.6,0.4,1.6,1c0,0.6-1,1.2-1.9,1.8l-14.7,9.8l15.9,15.2C111,111.2,111.6,111.6,111.6,112z"/>
		</g>
	</g>
</g>
<g>
	<g>
		<ellipse class="st1" cx="75" cy="86.4" rx="55.3" ry="32.3"/>
	</g>
	<rect x="19.7" y="75.5" class="st1" width="110.6" height="10.6"/>
	<g>
		<ellipse class="st2" cx="75" cy="75.9" rx="55.3" ry="32.3"/>
		<ellipse class="st3" cx="100.1" cy="56.1" rx="7.1" ry="4.1"/>
		<g>
			<path class="st4" d="M38.4,60.5v-3.2c0-0.7,1-1.3,2.3-1.3H76c1.3,0,2.3,0.6,2.3,1.3v3.2c0,0.7-1,1.3-2.3,1.3H63.7v23
				c0,0.7-1,1.3-2.3,1.3h-6.1c-1.3,0-2.3-0.6-2.3-1.3v-23H40.7C39.5,61.9,38.4,61.3,38.4,60.5z"/>
			<path class="st4" d="M112.9,95.7c0,0.6-0.7,1-1.6,1h-7.8c-1.5,0-2.4-0.5-2.9-1L88.4,83.9l-5.8,3.9v7.6c0,0.7-1,1.3-2.3,1.3h-6.1
				c-1.3,0-2.3-0.6-2.3-1.3V67.8c0-0.7,1-1.3,2.3-1.3h6.1c1.3,0,2.3,0.6,2.3,1.3v11.9l17.4-12.2c1.3-0.9,2.3-1,3.3-1h7.5
				c1,0,1.6,0.4,1.6,1c0,0.6-1,1.2-1.9,1.8L95.8,79l15.9,15.2C112.4,94.9,112.9,95.3,112.9,95.7z"/>
			<path class="st5" d="M37.1,59.6v-3.2c0-0.7,1-1.3,2.3-1.3h35.2c1.3,0,2.3,0.6,2.3,1.3v3.2c0,0.7-1,1.3-2.3,1.3H62.4v23
				c0,0.7-1,1.3-2.3,1.3H54c-1.3,0-2.3-0.6-2.3-1.3v-23H39.4C38.2,60.9,37.1,60.3,37.1,59.6z"/>
			<path class="st5" d="M111.6,94.8c0,0.6-0.7,1-1.6,1h-7.8c-1.5,0-2.4-0.5-2.9-1L87.1,82.9l-5.8,3.9v7.6c0,0.7-1,1.3-2.3,1.3h-6.1
				c-1.3,0-2.3-0.6-2.3-1.3V66.8c0-0.7,1-1.3,2.3-1.3h6.1c1.3,0,2.3,0.6,2.3,1.3v11.9l17.4-12.2c1.3-0.9,2.3-1,3.3-1h7.5
				c1,0,1.6,0.4,1.6,1c0,0.6-1,1.2-1.9,1.8l-14.7,9.8l15.9,15.2C111,93.9,111.6,94.3,111.6,94.8z"/>
		</g>
	</g>
</g>
<g>
	<g>
		
			<ellipse transform="matrix(0.9491 -0.3149 0.3149 0.9491 -14.2252 27.7005)" class="st1" cx="78.6" cy="57.9" rx="55.3" ry="32.3"/>
	</g>
	
		<rect x="21.5" y="47.2" transform="matrix(0.9491 -0.3149 0.3149 0.9491 -12.6343 26.8706)" class="st1" width="110.6" height="10.6"/>
	<g>
		
			<ellipse transform="matrix(0.9491 -0.3149 0.3149 0.9491 -11.2323 26.1402)" class="st2" cx="75.3" cy="47.8" rx="55.3" ry="32.3"/>
		<ellipse transform="matrix(0.9491 -0.3149 0.3149 0.9491 -1.9422 30.3158)" class="st3" cx="92.8" cy="21.2" rx="7.1" ry="4.1"/>
		<g>
			<path class="st4" d="M35.7,44.8l-1-3c-0.2-0.7,0.6-1.6,1.8-2l33.4-11.1c1.2-0.4,2.4-0.1,2.6,0.5l1,3c0.2,0.7-0.6,1.6-1.8,2
				l-11.6,3.9L67.4,60c0.2,0.7-0.6,1.6-1.8,2l-5.8,1.9c-1.2,0.4-2.4,0.1-2.6-0.5L50,41.5l-11.6,3.9C37.2,45.8,36,45.5,35.7,44.8z"/>
			<path class="st4" d="M117.5,54.8c0.2,0.5-0.3,1.1-1.2,1.4l-7.4,2.5c-1.4,0.5-2.4,0.3-3.1-0.1l-15.2-7.3l-4.2,5.5l2.4,7.2
				c0.2,0.7-0.6,1.6-1.8,2l-5.8,1.9c-1.2,0.4-2.4,0.1-2.6-0.5l-8.7-26.1c-0.2-0.7,0.6-1.6,1.8-2l5.8-1.9c1.2-0.4,2.4-0.1,2.6,0.5
				l3.8,11.3L96.5,32c1-1.3,1.8-1.7,2.8-2l7.1-2.3c0.9-0.3,1.7-0.1,1.9,0.4c0.2,0.6-0.6,1.4-1.3,2.3L96,44.3l19.9,9.4
				C116.7,54.1,117.3,54.4,117.5,54.8z"/>
			<path class="st5" d="M34.2,44.3l-1-3c-0.2-0.7,0.6-1.6,1.8-2l33.4-11.1c1.2-0.4,2.4-0.1,2.6,0.5l1,3c0.2,0.7-0.6,1.6-1.8,2
				l-11.6,3.9l7.2,21.8c0.2,0.7-0.6,1.6-1.8,2l-5.8,1.9c-1.2,0.4-2.4,0.1-2.6-0.5L48.4,41l-11.6,3.9C35.6,45.2,34.4,45,34.2,44.3z"
				/>
			<path class="st5" d="M115.9,54.2c0.2,0.5-0.3,1.1-1.2,1.4l-7.4,2.5c-1.4,0.5-2.4,0.3-3.1-0.1L89,50.7l-4.2,5.5l2.4,7.2
				c0.2,0.7-0.6,1.6-1.8,2l-5.8,1.9c-1.2,0.4-2.4,0.1-2.6-0.5l-8.7-26.1c-0.2-0.7,0.6-1.6,1.8-2l5.8-1.9c1.2-0.4,2.4-0.1,2.6,0.5
				l3.8,11.3l12.7-17.1c1-1.3,1.8-1.7,2.8-2l7.1-2.3c0.9-0.3,1.7-0.1,1.9,0.4c0.2,0.6-0.6,1.4-1.3,2.3L94.5,43.8l19.9,9.4
				C115.2,53.6,115.8,53.8,115.9,54.2z"/>
		</g>
	</g>
</g>
</svg>
